<svg xmlns="http://www.w3.org/2000/svg" viewBox="0 0 512 512" width="100%" height="100%">
  <defs>
    <linearGradient id="grad" x1="0%" y1="0%" x2="100%" y2="100%">
      <stop offset="0%" stop-color="#4f46e5" />
      <stop offset="100%" stop-color="#7c3aed" />
    </linearGradient>
    <filter id="shadow" x="-20%" y="-20%" width="140%" height="140%">
      <feDropShadow dx="0" dy="16" stdDeviation="24" flood-color="#4338ca" flood-opacity="0.4"/>
    </filter>
  </defs>
  <rect width="512" height="512" rx="112" fill="url(#grad)" />
  <g filter="url(#shadow)">
    <!-- Receipt outline -->
    <path d="M144 112h224a24 24 0 0 1 24 24v256l-32-16-32 16-32-16-32 16-32-16-32 16-32-16-24 12V136a24 24 0 0 1 24-24z" fill="#ffffff" fill-opacity="0.15" />
    <!-- Receipt document card -->
    <rect x="156" y="128" width="200" height="232" rx="16" fill="#ffffff" />
    <!-- Receipt lines -->
    <rect x="184" y="160" width="80" height="12" rx="6" fill="#4f46e5" />
    <rect x="184" y="188" width="144" height="8" rx="4" fill="#cbd5e1" />
    <rect x="184" y="208" width="120" height="8" rx="4" fill="#cbd5e1" />
    <line x1="184" y1="232" x2="328" y2="232" stroke="#e2e8f0" stroke-width="2" stroke-dasharray="4 4" />
    <!-- Lightning Bolt / Fast Invoicing Emblem -->
    <path d="M264 248l-28 44h24l-8 36 32-48h-24l12-32h-8z" fill="#4f46e5" />
    <!-- Bottom total bar -->
    <rect x="184" y="324" width="144" height="12" rx="6" fill="#10b981" />
  </g>
</svg>